<svg xmlns="http://www.w3.org/2000/svg">
  <symbol id="search-icon" viewBox="0 0 18 18"> 
    <g>
      <path fill-rule="evenodd" clip-rule="evenodd" d="M17.4354 16.3951L13.146 11.9395C14.2489 10.6301 14.8532 8.98262 14.8532 7.26749C14.8532 3.26026 11.5888 0 7.57659 0C3.56433 0 0.299988 3.26026 0.299988 7.26749C0.299988 11.2747 3.56433 14.535 7.57659 14.535C9.08284 14.535 10.5182 14.0812 11.7454 13.2199L16.0674 17.7093C16.2481 17.8967 16.4911 18 16.7514 18C16.9979 18 17.2317 17.9062 17.4092 17.7355C17.7863 17.3731 17.7983 16.7721 17.4354 16.3951ZM7.57659 1.89587C10.5423 1.89587 12.9549 4.30552 12.9549 7.26749C12.9549 10.2295 10.5423 12.6391 7.57659 12.6391C4.6109 12.6391 2.19823 10.2295 2.19823 7.26749C2.19823 4.30552 4.6109 1.89587 7.57659 1.89587Z" fill="#BCBFC2"/>
    </g>
  </symbol>
  <symbol id="user-icon" viewBox="0 0 16 18">
    <g>
      <path fill-rule="evenodd" clip-rule="evenodd" d="M16 15.6316C14.3675 17.2105 11.7008 18 8 18C4.29917 18 1.63251 17.2105 0 15.6316C0 12.3481 1.90591 9.98316 4.70588 9C5.60059 9.41686 6.59455 10 8 10C9.40545 10 10.3311 9.39256 11.2941 9C14.0575 9.99655 16 12.3748 16 15.6316ZM8 8C5.79086 8 4 6.20914 4 4C4 1.79086 5.79086 0 8 0C10.2091 0 12 1.79086 12 4C12 6.20914 10.2091 8 8 8Z" fill="#BCBFC2"/>
    </g>
  </symbol>
  <symbol id="weather-icon" viewBox="0 0 18 18">
    <g>
      <path fill-rule="evenodd" clip-rule="evenodd" d="M9 15.4763C9.4151 15.4763 9.74939 15.8106 9.74939 16.2257V17.2506C9.74939 17.6657 9.4151 18 9 18C8.5849 18 8.25061 17.6657 8.25061 17.2506V16.2257C8.25061 15.8106 8.5849 15.4763 9 15.4763ZM9 2.52367C8.5849 2.52367 8.25061 2.18939 8.25061 1.77429V0.749388C8.25061 0.334286 8.5849 0 9 0C9.4151 0 9.74939 0.334286 9.74939 0.749388V1.77429C9.74939 2.18939 9.4151 2.52367 9 2.52367ZM17.2506 8.25061C17.6657 8.25061 18 8.5849 18 9C18 9.4151 17.6657 9.74939 17.2506 9.74939H16.2257C15.8106 9.74939 15.4763 9.4151 15.4763 9C15.4763 8.5849 15.8106 8.25061 16.2257 8.25061H17.2506ZM1.77429 8.25061C2.18939 8.25061 2.52367 8.5849 2.52367 9C2.52367 9.4151 2.18939 9.74939 1.77429 9.74939H0.749388C0.334286 9.74939 0 9.4151 0 9C0 8.5849 0.334286 8.25061 0.749388 8.25061H1.77429ZM14.6388 4.42286C14.3449 4.71306 13.871 4.71673 13.5771 4.42286C13.2833 4.12898 13.2833 3.6551 13.5771 3.36122L14.3008 2.63755C14.5947 2.34367 15.0686 2.34367 15.3624 2.63755C15.6563 2.93143 15.6563 3.40531 15.3624 3.69918L14.6388 4.42286ZM3.36122 13.5771C3.6551 13.2869 4.12898 13.2833 4.42286 13.5771C4.71673 13.871 4.71673 14.3449 4.42286 14.6388L3.69918 15.3624C3.40531 15.6563 2.93143 15.6563 2.63755 15.3624C2.34367 15.0686 2.34367 14.5947 2.63755 14.3008L3.36122 13.5771ZM14.6388 13.5771L15.3624 14.3008C15.6563 14.5947 15.6563 15.0686 15.3624 15.3624C15.0686 15.6563 14.5947 15.6563 14.3008 15.3624L13.5771 14.6388C13.2833 14.3449 13.2833 13.871 13.5771 13.5771C13.871 13.2833 14.3449 13.2833 14.6388 13.5771ZM3.36122 4.42286L2.63755 3.69918C2.34367 3.40531 2.34367 2.93143 2.63755 2.63755C2.93143 2.34367 3.40531 2.34367 3.69918 2.63755L4.42286 3.36122C4.71673 3.6551 4.71673 4.12898 4.42286 4.42286C4.12898 4.71673 3.6551 4.71673 3.36122 4.42286ZM9 3.36122C12.1078 3.36122 14.6388 5.89224 14.6388 9C14.6388 12.1114 12.1078 14.6388 9 14.6388C5.88857 14.6388 3.36122 12.1078 3.36122 9C3.36122 5.88857 5.89224 3.36122 9 3.36122ZM9 13.1363C11.2812 13.1363 13.1363 11.2812 13.1363 9C13.1363 6.71878 11.2812 4.86367 9 4.86367C6.71878 4.86367 4.86367 6.71878 4.86367 9C4.86367 11.2812 6.71878 13.1363 9 13.1363Z" fill="#BCBFC2"/>
    </g>
  </symbol>
  <symbol id="read-more" viewBox="0 0 15 7">
    <g>
      <path fill-rule="evenodd" clip-rule="evenodd" d="M0 2.99951V3.99951H11V6.99951L15 3.49951L11 -0.000488281V2.99951H0Z" fill="white"/>
    </g>
  </symbol>
  <symbol id="play-arrow" viewBox="0 0 12 14">
    <g>
      <path fill-rule="evenodd" clip-rule="evenodd" d="M0.499939 12.9231L0.499939 1.07587C0.499939 0.619484 0.88294 0.249512 1.3554 0.249512C1.51943 0.249512 1.68001 0.295069 1.81799 0.380755L11.357 6.30435C11.7544 6.55114 11.8695 7.06242 11.614 7.44632C11.5477 7.5459 11.4601 7.63056 11.357 7.69457L1.81799 13.6182C1.42057 13.865 0.891288 13.7538 0.635804 13.3699C0.547101 13.2366 0.499939 13.0815 0.499939 12.9231Z" fill="white"/>
    </g>
  </symbol>
  <symbol id="play-border" viewBox="0 0 50 50">
    <g>
      <path opacity="0.4" fill-rule="evenodd" clip-rule="evenodd" d="M25 49.9995C11.1929 49.9995 0 38.8066 0 24.9995C0 11.1924 11.1929 -0.000488281 25 -0.000488281C38.8071 -0.000488281 50 11.1924 50 24.9995C50 38.8066 38.8071 49.9995 25 49.9995ZM25 47.4995C37.4264 47.4995 47.5 37.4259 47.5 24.9995C47.5 12.5731 37.4264 2.49951 25 2.49951C12.5736 2.49951 2.5 12.5731 2.5 24.9995C2.5 37.4259 12.5736 47.4995 25 47.4995Z" fill="white"/>
    </g>
  </symbol>
  <symbol id="icon-play" viewBox="0 0 20 20">
    <g>
      <path fill-rule="evenodd" clip-rule="evenodd" d="M10 19.9995C4.47715 19.9995 0 15.5224 0 9.99951C0 4.47666 4.47715 -0.000488281 10 -0.000488281C15.5228 -0.000488281 20 4.47666 20 9.99951C20 15.5224 15.5228 19.9995 10 19.9995ZM10 18.9995C14.9706 18.9995 19 14.9701 19 9.99951C19 5.02895 14.9706 0.999512 10 0.999512C5.02944 0.999512 1 5.02895 1 9.99951C1 14.9701 5.02944 18.9995 10 18.9995Z" fill="#BCBFC2"/>
      <path fill-rule="evenodd" clip-rule="evenodd" d="M8.2 12.3687V7.62986C8.2 7.44731 8.3532 7.29932 8.54218 7.29932C8.60779 7.29932 8.67202 7.31754 8.72722 7.35181L12.5428 9.72125C12.7018 9.81997 12.7478 10.0245 12.6456 10.178C12.6191 10.2179 12.584 10.2517 12.5428 10.2773L8.72722 12.6468C8.56825 12.7455 8.35654 12.701 8.25434 12.5475C8.21886 12.4942 8.2 12.4321 8.2 12.3687Z" fill="#262D33"/>
    </g>
  </symbol>
  <symbol id="comments-icon" viewBox="0 0 15 14">
    <g>
      <path fill-rule="evenodd" clip-rule="evenodd" d="M11.1346 10.9998V13.9998L8.36064 10.9998H2.25C1.42157 10.9998 0.75 10.3282 0.75 9.49976V1.99976C0.75 1.17133 1.42157 0.499756 2.25 0.499756H12.75C13.5784 0.499756 14.25 1.17133 14.25 1.99976V9.49976C14.25 10.3282 13.5784 10.9998 12.75 10.9998H11.1346Z" fill="#BCBFC2"/>
    </g>
  </symbol>
  <symbol id="likes-icon" viewBox="0 0 13 13">
    <g>
      <path fill-rule="evenodd" clip-rule="evenodd" d="M11.8391 1.96033C11.1701 1.2119 10.2807 0.800049 9.33459 0.800049C8.38831 0.800049 7.59423 1.2119 6.925 1.96033L6.49998 2.63921L6.075 1.96033C5.40597 1.2119 4.61164 0.800049 3.66557 0.800049C2.71953 0.800049 1.82982 1.2119 1.16086 1.96033C-0.220288 3.50554 -0.220288 6.01968 1.16086 7.56429L6.10991 12.3207C6.19083 12.4116 6.29157 12.4672 6.39682 12.4886C6.43211 12.4964 6.46761 12.5 6.50317 12.5C6.64318 12.5 6.78341 12.4403 6.89004 12.3207L11.8391 7.56429C13.2203 6.01968 13.2203 3.50554 11.8391 1.96033Z" fill="white"/>
    </g>
  </symbol>
  <symbol id="" viewBox="0 0 18 18">
    <g>
      
    </g>
  </symbol>
  <symbol id="" viewBox="0 0 18 18">
    <g>
      
    </g>
  </symbol>
  <symbol id="" viewBox="0 0 18 18">
    <g>
      
    </g>
  </symbol>
</svg>
