<svg xmlns="http://www.w3.org/2000/svg">
  <symbol id="search-icon" viewBox="0 0 18 18"> 
    <g>
      <path fill-rule="evenodd" clip-rule="evenodd" d="M17.4354 16.3951L13.146 11.9395C14.2489 10.6301 14.8532 8.98262 14.8532 7.26749C14.8532 3.26026 11.5888 0 7.57659 0C3.56433 0 0.299988 3.26026 0.299988 7.26749C0.299988 11.2747 3.56433 14.535 7.57659 14.535C9.08284 14.535 10.5182 14.0812 11.7454 13.2199L16.0674 17.7093C16.2481 17.8967 16.4911 18 16.7514 18C16.9979 18 17.2317 17.9062 17.4092 17.7355C17.7863 17.3731 17.7983 16.7721 17.4354 16.3951ZM7.57659 1.89587C10.5423 1.89587 12.9549 4.30552 12.9549 7.26749C12.9549 10.2295 10.5423 12.6391 7.57659 12.6391C4.6109 12.6391 2.19823 10.2295 2.19823 7.26749C2.19823 4.30552 4.6109 1.89587 7.57659 1.89587Z" fill="#BCBFC2"/>
    </g>
  </symbol>
  <symbol id="user-icon" viewBox="0 0 16 18">
    <g>
      <path fill-rule="evenodd" clip-rule="evenodd" d="M16 15.6316C14.3675 17.2105 11.7008 18 8 18C4.29917 18 1.63251 17.2105 0 15.6316C0 12.3481 1.90591 9.98316 4.70588 9C5.60059 9.41686 6.59455 10 8 10C9.40545 10 10.3311 9.39256 11.2941 9C14.0575 9.99655 16 12.3748 16 15.6316ZM8 8C5.79086 8 4 6.20914 4 4C4 1.79086 5.79086 0 8 0C10.2091 0 12 1.79086 12 4C12 6.20914 10.2091 8 8 8Z" fill="#BCBFC2"/>
    </g>
  </symbol>
  <symbol id="weather-icon" viewBox="0 0 18 18">
    <g>
      <path fill-rule="evenodd" clip-rule="evenodd" d="M9 15.4763C9.4151 15.4763 9.74939 15.8106 9.74939 16.2257V17.2506C9.74939 17.6657 9.4151 18 9 18C8.5849 18 8.25061 17.6657 8.25061 17.2506V16.2257C8.25061 15.8106 8.5849 15.4763 9 15.4763ZM9 2.52367C8.5849 2.52367 8.25061 2.18939 8.25061 1.77429V0.749388C8.25061 0.334286 8.5849 0 9 0C9.4151 0 9.74939 0.334286 9.74939 0.749388V1.77429C9.74939 2.18939 9.4151 2.52367 9 2.52367ZM17.2506 8.25061C17.6657 8.25061 18 8.5849 18 9C18 9.4151 17.6657 9.74939 17.2506 9.74939H16.2257C15.8106 9.74939 15.4763 9.4151 15.4763 9C15.4763 8.5849 15.8106 8.25061 16.2257 8.25061H17.2506ZM1.77429 8.25061C2.18939 8.25061 2.52367 8.5849 2.52367 9C2.52367 9.4151 2.18939 9.74939 1.77429 9.74939H0.749388C0.334286 9.74939 0 9.4151 0 9C0 8.5849 0.334286 8.25061 0.749388 8.25061H1.77429ZM14.6388 4.42286C14.3449 4.71306 13.871 4.71673 13.5771 4.42286C13.2833 4.12898 13.2833 3.6551 13.5771 3.36122L14.3008 2.63755C14.5947 2.34367 15.0686 2.34367 15.3624 2.63755C15.6563 2.93143 15.6563 3.40531 15.3624 3.69918L14.6388 4.42286ZM3.36122 13.5771C3.6551 13.2869 4.12898 13.2833 4.42286 13.5771C4.71673 13.871 4.71673 14.3449 4.42286 14.6388L3.69918 15.3624C3.40531 15.6563 2.93143 15.6563 2.63755 15.3624C2.34367 15.0686 2.34367 14.5947 2.63755 14.3008L3.36122 13.5771ZM14.6388 13.5771L15.3624 14.3008C15.6563 14.5947 15.6563 15.0686 15.3624 15.3624C15.0686 15.6563 14.5947 15.6563 14.3008 15.3624L13.5771 14.6388C13.2833 14.3449 13.2833 13.871 13.5771 13.5771C13.871 13.2833 14.3449 13.2833 14.6388 13.5771ZM3.36122 4.42286L2.63755 3.69918C2.34367 3.40531 2.34367 2.93143 2.63755 2.63755C2.93143 2.34367 3.40531 2.34367 3.69918 2.63755L4.42286 3.36122C4.71673 3.6551 4.71673 4.12898 4.42286 4.42286C4.12898 4.71673 3.6551 4.71673 3.36122 4.42286ZM9 3.36122C12.1078 3.36122 14.6388 5.89224 14.6388 9C14.6388 12.1114 12.1078 14.6388 9 14.6388C5.88857 14.6388 3.36122 12.1078 3.36122 9C3.36122 5.88857 5.89224 3.36122 9 3.36122ZM9 13.1363C11.2812 13.1363 13.1363 11.2812 13.1363 9C13.1363 6.71878 11.2812 4.86367 9 4.86367C6.71878 4.86367 4.86367 6.71878 4.86367 9C4.86367 11.2812 6.71878 13.1363 9 13.1363Z" fill="#BCBFC2"/>
    </g>
  </symbol>
  <symbol id="read-more" viewBox="0 0 15 7">
    <g>
      <path fill-rule="evenodd" clip-rule="evenodd" d="M0 2.99951V3.99951H11V6.99951L15 3.49951L11 -0.000488281V2.99951H0Z" fill="white"/>
    </g>
  </symbol>
  <symbol id="play-arrow" viewBox="0 0 12 14">
    <g>
      <path fill-rule="evenodd" clip-rule="evenodd" d="M0.499939 12.9231L0.499939 1.07587C0.499939 0.619484 0.88294 0.249512 1.3554 0.249512C1.51943 0.249512 1.68001 0.295069 1.81799 0.380755L11.357 6.30435C11.7544 6.55114 11.8695 7.06242 11.614 7.44632C11.5477 7.5459 11.4601 7.63056 11.357 7.69457L1.81799 13.6182C1.42057 13.865 0.891288 13.7538 0.635804 13.3699C0.547101 13.2366 0.499939 13.0815 0.499939 12.9231Z" fill="white"/>
    </g>
  </symbol>
  <symbol id="play-border" viewBox="0 0 50 50">
    <g>
      <path opacity="0.4" fill-rule="evenodd" clip-rule="evenodd" d="M25 49.9995C11.1929 49.9995 0 38.8066 0 24.9995C0 11.1924 11.1929 -0.000488281 25 -0.000488281C38.8071 -0.000488281 50 11.1924 50 24.9995C50 38.8066 38.8071 49.9995 25 49.9995ZM25 47.4995C37.4264 47.4995 47.5 37.4259 47.5 24.9995C47.5 12.5731 37.4264 2.49951 25 2.49951C12.5736 2.49951 2.5 12.5731 2.5 24.9995C2.5 37.4259 12.5736 47.4995 25 47.4995Z" fill="white"/>
    </g>
  </symbol>
  <symbol id="icon-play" viewBox="0 0 20 20">
    <g>
      <path fill-rule="evenodd" clip-rule="evenodd" d="M10 19.9995C4.47715 19.9995 0 15.5224 0 9.99951C0 4.47666 4.47715 -0.000488281 10 -0.000488281C15.5228 -0.000488281 20 4.47666 20 9.99951C20 15.5224 15.5228 19.9995 10 19.9995ZM10 18.9995C14.9706 18.9995 19 14.9701 19 9.99951C19 5.02895 14.9706 0.999512 10 0.999512C5.02944 0.999512 1 5.02895 1 9.99951C1 14.9701 5.02944 18.9995 10 18.9995Z" fill="#BCBFC2"/>
      <path fill-rule="evenodd" clip-rule="evenodd" d="M8.2 12.3687V7.62986C8.2 7.44731 8.3532 7.29932 8.54218 7.29932C8.60779 7.29932 8.67202 7.31754 8.72722 7.35181L12.5428 9.72125C12.7018 9.81997 12.7478 10.0245 12.6456 10.178C12.6191 10.2179 12.584 10.2517 12.5428 10.2773L8.72722 12.6468C8.56825 12.7455 8.35654 12.701 8.25434 12.5475C8.21886 12.4942 8.2 12.4321 8.2 12.3687Z" fill="#262D33"/>
    </g>
  </symbol>
  <symbol id="comments-icon" viewBox="0 0 15 14">
    <g>
      <path fill-rule="evenodd" clip-rule="evenodd" d="M11.1346 10.9998V13.9998L8.36064 10.9998H2.25C1.42157 10.9998 0.75 10.3282 0.75 9.49976V1.99976C0.75 1.17133 1.42157 0.499756 2.25 0.499756H12.75C13.5784 0.499756 14.25 1.17133 14.25 1.99976V9.49976C14.25 10.3282 13.5784 10.9998 12.75 10.9998H11.1346Z"/>
    </g>
  </symbol>
  <symbol id="likes-icon" viewBox="0 0 13 13">
    <g>
      <path fill-rule="evenodd" clip-rule="evenodd" d="M11.8391 1.96033C11.1701 1.2119 10.2807 0.800049 9.33459 0.800049C8.38831 0.800049 7.59423 1.2119 6.925 1.96033L6.49998 2.63921L6.075 1.96033C5.40597 1.2119 4.61164 0.800049 3.66557 0.800049C2.71953 0.800049 1.82982 1.2119 1.16086 1.96033C-0.220288 3.50554 -0.220288 6.01968 1.16086 7.56429L6.10991 12.3207C6.19083 12.4116 6.29157 12.4672 6.39682 12.4886C6.43211 12.4964 6.46761 12.5 6.50317 12.5C6.64318 12.5 6.78341 12.4403 6.89004 12.3207L11.8391 7.56429C13.2203 6.01968 13.2203 3.50554 11.8391 1.96033Z" />
    </g>
  </symbol>
  <symbol id="bookmark" viewBox="0 0 14 18">
    <g>
      <path fill-rule="evenodd" clip-rule="evenodd" d="M2 0H12C13.1046 0 14 0.89543 14 2V18L7.09495 13L0 18V2C0 0.89543 0.89543 0 2 0Z" />
    </g>
  </symbol>
  <symbol id="one" viewBox="0 0 29 51">
    <g>
      <path d="M28.0295 44.175L27.1545 51H0.764532L1.63953 44.175H10.7745L14.2395 15.65C14.3095 15.0667 14.3912 14.4833 14.4845 13.9C14.5779 13.3167 14.6829 12.7217 14.7995 12.115L8.32453 17.68C7.83453 18.03 7.36786 18.2517 6.92453 18.345C6.4812 18.415 6.07287 18.415 5.69953 18.345C5.3262 18.275 4.99953 18.1467 4.71953 17.96C4.46286 17.7733 4.2762 17.575 4.15953 17.365L1.70953 13.41L17.8095 0.179999H25.4745L20.0845 44.175H28.0295Z" fill="#262D33"/>
    </g>
  </symbol>
  <symbol id="two" viewBox="0 0 38 52">
    <g>
      <path d="M30.9645 43.495C31.9679 43.495 32.7262 43.775 33.2395 44.335C33.7529 44.895 33.9512 45.63 33.8345 46.54L33.1345 52H0.514531L0.899531 48.955C0.992865 48.3483 1.1912 47.7067 1.49453 47.03C1.8212 46.3533 2.32286 45.735 2.99953 45.175L18.5745 29.95C20.1145 28.4567 21.4445 27.0683 22.5645 25.785C23.6845 24.4783 24.6062 23.2067 25.3295 21.97C26.0529 20.7333 26.5895 19.485 26.9395 18.225C27.2895 16.965 27.4645 15.6117 27.4645 14.165C27.4645 12.3217 27.0329 10.8983 26.1695 9.895C25.3062 8.89166 24.0345 8.39 22.3545 8.39C21.5379 8.39 20.7679 8.53 20.0445 8.81C19.3445 9.09 18.6912 9.475 18.0845 9.965C17.5012 10.455 16.9762 11.0383 16.5095 11.715C16.0429 12.3683 15.6695 13.08 15.3895 13.85C14.8295 14.97 14.1879 15.7167 13.4645 16.09C12.7412 16.4633 11.7612 16.545 10.5245 16.335L5.69453 15.495C6.34786 13.0217 7.25786 10.8633 8.42453 9.02C9.61453 7.17667 11.0029 5.63667 12.5895 4.4C14.1762 3.16333 15.9262 2.24166 17.8395 1.635C19.7529 1.005 21.7712 0.689997 23.8945 0.689997C25.9479 0.689997 27.7912 1.005 29.4245 1.635C31.0579 2.24166 32.4345 3.105 33.5545 4.225C34.6979 5.32166 35.5729 6.65166 36.1795 8.215C36.7862 9.755 37.0895 11.4583 37.0895 13.325C37.0895 15.4717 36.7745 17.4317 36.1445 19.205C35.5379 20.955 34.7095 22.6233 33.6595 24.21C32.6095 25.7733 31.3845 27.29 29.9845 28.76C28.5845 30.2067 27.1029 31.7 25.5395 33.24L13.8495 44.755C15.1095 44.3583 16.3695 44.055 17.6295 43.845C18.9129 43.6117 20.0795 43.495 21.1295 43.495H30.9645Z" fill="#262D33"/>
    </g>
  </symbol>
  <symbol id="three" viewBox="0 0 36 53">
    <g>
      <path d="M4.90453 15.495C5.55787 13.0217 6.46786 10.8633 7.63453 9.02C8.82453 7.17667 10.2129 5.63667 11.7995 4.4C13.3862 3.16333 15.1362 2.24166 17.0495 1.635C18.9629 1.005 20.9812 0.689997 23.1045 0.689997C25.1812 0.689997 27.0129 0.993331 28.5995 1.6C30.2095 2.20667 31.5512 3.035 32.6245 4.085C33.7212 5.135 34.5495 6.37166 35.1095 7.795C35.6695 9.195 35.9495 10.7 35.9495 12.31C35.9495 14.1767 35.7512 15.8217 35.3545 17.245C34.9812 18.645 34.4212 19.87 33.6745 20.92C32.9279 21.9467 32.0062 22.81 30.9095 23.51C29.8129 24.21 28.5412 24.7817 27.0945 25.225C31.7145 26.975 34.0245 30.2767 34.0245 35.13C34.0245 37.02 33.7912 38.7583 33.3245 40.345C32.8579 41.9317 32.2045 43.3783 31.3645 44.685C30.5245 45.9683 29.5212 47.1 28.3545 48.08C27.2112 49.06 25.9629 49.8883 24.6095 50.565C23.2562 51.2183 21.8212 51.7083 20.3045 52.035C18.7879 52.385 17.2479 52.56 15.6845 52.56C13.4212 52.56 11.4495 52.28 9.76953 51.72C8.08953 51.1367 6.64287 50.285 5.42953 49.165C4.23953 48.045 3.25953 46.645 2.48953 44.965C1.74286 43.285 1.14786 41.3367 0.704531 39.12L5.04453 37.405C6.18786 36.9617 7.20286 36.845 8.08953 37.055C8.99953 37.265 9.6062 37.755 9.90953 38.525C10.2595 39.3883 10.6329 40.205 11.0295 40.975C11.4262 41.745 11.8812 42.4217 12.3945 43.005C12.9079 43.565 13.5029 44.02 14.1795 44.37C14.8562 44.6967 15.6379 44.86 16.5245 44.86C17.8079 44.86 18.9629 44.6033 19.9895 44.09C21.0162 43.5533 21.8795 42.8417 22.5795 41.955C23.2795 41.045 23.8162 40.0067 24.1895 38.84C24.5629 37.6733 24.7495 36.4483 24.7495 35.165C24.7495 34.3017 24.6212 33.52 24.3645 32.82C24.1079 32.0967 23.6295 31.4783 22.9295 30.965C22.2529 30.4283 21.3079 30.02 20.0945 29.74C18.9045 29.4367 17.3529 29.285 15.4395 29.285L16.2795 22.74C18.2629 22.74 19.9195 22.5533 21.2495 22.18C22.6029 21.7833 23.6762 21.2233 24.4695 20.5C25.2862 19.7533 25.8579 18.8433 26.1845 17.77C26.5345 16.6967 26.7095 15.4717 26.7095 14.095C26.7095 12.275 26.2662 10.875 25.3795 9.895C24.5162 8.89166 23.2445 8.39 21.5645 8.39C20.7479 8.39 19.9779 8.53 19.2545 8.81C18.5545 9.09 17.9012 9.475 17.2945 9.965C16.6879 10.455 16.1512 11.0383 15.6845 11.715C15.2412 12.3683 14.8795 13.08 14.5995 13.85C14.0395 14.97 13.3862 15.7167 12.6395 16.09C11.9162 16.4633 10.9362 16.545 9.69953 16.335L4.90453 15.495Z" fill="#262D33"/>
    </g>
  </symbol>
  <symbol id="four" viewBox="0 0 37 51">
    <g>
      <path d="M23.2995 31.715L25.1895 16C25.2829 15.3467 25.3879 14.6583 25.5045 13.935C25.6212 13.2117 25.7729 12.465 25.9595 11.695L10.3145 31.715H23.2995ZM36.5995 31.715L35.9345 37C35.8879 37.49 35.6779 37.9217 35.3045 38.295C34.9312 38.645 34.4529 38.82 33.8695 38.82H30.5445L29.0395 51H20.9545L22.4245 38.82H3.27953C2.6962 38.82 2.19453 38.6333 1.77453 38.26C1.35453 37.8867 1.1212 37.42 1.07453 36.86L0.689531 32.17L26.4495 0.214997H35.2695L31.4195 31.715H36.5995Z" fill="#262D33"/>
    </g>
  </symbol>
  <symbol id="five" viewBox="0 0 37 52">
    <g>
      <path d="M36.0895 0.249998L35.5995 4.135C35.4362 5.44166 34.8879 6.50333 33.9545 7.32C33.0212 8.13666 31.5629 8.545 29.5795 8.545H17.9595L15.1595 18.45C16.1395 18.2633 17.0612 18.1233 17.9245 18.03C18.8112 17.9367 19.6629 17.89 20.4795 17.89C22.7195 17.89 24.6679 18.24 26.3245 18.94C28.0045 19.64 29.3929 20.5967 30.4895 21.81C31.6095 23.0233 32.4495 24.4467 33.0095 26.08C33.5695 27.7133 33.8495 29.4517 33.8495 31.295C33.8495 34.2817 33.3245 37.0233 32.2745 39.52C31.2479 41.9933 29.8245 44.1283 28.0045 45.925C26.2079 47.6983 24.0845 49.0867 21.6345 50.09C19.1845 51.07 16.5479 51.56 13.7245 51.56C12.2079 51.56 10.7962 51.385 9.48953 51.035C8.18286 50.7083 6.96953 50.265 5.84953 49.705C4.72953 49.145 3.70286 48.5033 2.76953 47.78C1.85953 47.0333 1.04286 46.2517 0.319531 45.435L3.67953 41.55C4.40286 40.7333 5.24286 40.325 6.19953 40.325C6.8062 40.325 7.3662 40.5117 7.87953 40.885C8.39287 41.2583 8.96453 41.6667 9.59453 42.11C10.2479 42.5533 11.0179 42.9617 11.9045 43.335C12.7912 43.7083 13.8995 43.895 15.2295 43.895C16.8395 43.895 18.2279 43.58 19.3945 42.95C20.5612 42.32 21.5179 41.48 22.2645 40.43C23.0345 39.38 23.5945 38.1667 23.9445 36.79C24.2945 35.4133 24.4695 33.9783 24.4695 32.485C24.4695 30.2683 23.8745 28.53 22.6845 27.27C21.5179 26.01 19.8029 25.38 17.5395 25.38C15.3695 25.38 13.1879 25.8233 10.9945 26.71L5.39453 25.1L12.4295 0.249998H36.0895Z" fill="#262D33"/>
    </g>
  </symbol>
  <symbol id="six" viewBox="0 0 35 52">
    <g>
      <path d="M16.2258 44.07C17.4391 44.07 18.5824 43.8133 19.6558 43.3C20.7524 42.7633 21.7091 42.04 22.5258 41.13C23.3424 40.1967 23.9841 39.1 24.4508 37.84C24.9174 36.5567 25.1508 35.1567 25.1508 33.64C25.1508 31.2833 24.5441 29.4283 23.3308 28.075C22.1408 26.7217 20.4841 26.045 18.3608 26.045C17.1708 26.045 16.0508 26.3017 15.0008 26.815C13.9508 27.3283 13.0291 28.0517 12.2358 28.985C11.4658 29.9183 10.8591 31.0383 10.4158 32.345C9.97245 33.6283 9.75078 35.0517 9.75078 36.615C9.75078 37.7117 9.87912 38.7267 10.1358 39.66C10.4158 40.57 10.8241 41.3517 11.3608 42.005C11.8974 42.6583 12.5624 43.1717 13.3558 43.545C14.1724 43.895 15.1291 44.07 16.2258 44.07ZM16.9958 20.235C17.8124 19.9083 18.6758 19.6517 19.5858 19.465C20.5191 19.2783 21.4874 19.185 22.4908 19.185C24.0541 19.185 25.5591 19.465 27.0058 20.025C28.4758 20.5617 29.7708 21.3783 30.8908 22.475C32.0108 23.5483 32.9091 24.9017 33.5858 26.535C34.2624 28.1683 34.6008 30.0583 34.6008 32.205C34.6008 34.865 34.1108 37.3733 33.1308 39.73C32.1741 42.0633 30.8441 44.1167 29.1408 45.89C27.4374 47.64 25.4191 49.0283 23.0858 50.055C20.7524 51.0583 18.2091 51.56 15.4558 51.56C13.1458 51.56 11.0808 51.1867 9.26078 50.44C7.46412 49.6933 5.94745 48.6433 4.71078 47.29C3.47411 45.9367 2.52911 44.3267 1.87578 42.46C1.24578 40.57 0.930781 38.505 0.930781 36.265C0.930781 34.7017 1.08245 33.185 1.38578 31.715C1.71245 30.2217 2.17911 28.7517 2.78578 27.305C3.41578 25.8583 4.19745 24.4 5.13078 22.93C6.06412 21.46 7.14912 19.955 8.38578 18.415L21.0908 2.42C21.6041 1.81333 22.3158 1.3 23.2258 0.879999C24.1591 0.459998 25.1858 0.249998 26.3058 0.249998H34.6008L18.5008 18.555L16.9958 20.235Z" fill="#262D33"/>
    </g>
  </symbol>
  <symbol id="seven" viewBox="0 0 36 51">
    <g>
      <path d="M35.8895 0.249998L35.3995 4.205C35.2362 5.395 34.9795 6.35167 34.6295 7.075C34.2795 7.79833 33.9529 8.41666 33.6495 8.93L12.1595 47.885C11.6229 48.7483 10.9345 49.4833 10.0945 50.09C9.25453 50.6967 8.1812 51 6.87453 51H0.119531L21.9245 12.885C22.4845 12.0217 23.0445 11.24 23.6045 10.54C24.1645 9.81667 24.7712 9.15167 25.4245 8.545H4.24953C3.71286 8.545 3.2462 8.335 2.84953 7.915C2.4762 7.47167 2.32453 6.98167 2.39453 6.445L3.16453 0.249998H35.8895Z" fill="#262D33"/>
    </g>
  </symbol>
  <symbol id="photos" viewBox="0 0 19 15">
    <g>
      <path fill-rule="evenodd" clip-rule="evenodd" d="M3 3V1C3 0.447715 3.44772 0 4 0H18C18.5523 0 19 0.447715 19 1V11C19 11.5523 18.5523 12 18 12H16V14C16 14.5523 15.5523 15 15 15H1C0.447715 15 0 14.5523 0 14V4C0 3.44772 0.447715 3 1 3H3ZM15 12H4C3.44772 12 3 11.5523 3 11V4H1V14H15V12ZM4 1V11H18V1H4ZM18 11H4V10L7 7L10 9L14 5L18 10V11ZM9.5 6C8.67157 6 8 5.32843 8 4.5C8 3.67157 8.67157 3 9.5 3C10.3284 3 11 3.67157 11 4.5C11 5.32843 10.3284 6 9.5 6Z" fill="white"/>
    </g>
  </symbol>
  <symbol id="circle" viewBox="0 0 260 260">
    <g>
      <path fill-rule="evenodd" clip-rule="evenodd" d="M130 260C201.797 260 260 201.797 260 130C260 58.203 201.797 0 130 0C58.203 0 0 58.203 0 130C0 201.797 58.203 260 130 260Z" fill="#D1E2EB"/>
    </g>
  </symbol>
  <symbol id="facebook" viewBox="0 0 10 18">
    <g>
      <path fill-rule="evenodd" clip-rule="evenodd" d="M9.62343 0.0037452L7.22488 0C4.5302 0 2.78878 1.73871 2.78878 4.42982V6.47227H0.377148C0.168754 6.47227 0 6.63668 0 6.83949V9.79876C0 10.0016 0.168947 10.1658 0.377148 10.1658H2.78878V17.633C2.78878 17.8358 2.95753 18 3.16593 18H6.31242C6.52081 18 6.68956 17.8356 6.68956 17.633V10.1658H9.50932C9.71772 10.1658 9.88647 10.0016 9.88647 9.79876L9.88763 6.83949C9.88763 6.74211 9.84779 6.64886 9.77717 6.57994C9.70656 6.51103 9.61034 6.47227 9.51029 6.47227H6.68956V4.74086C6.68956 3.90868 6.89334 3.48622 8.00727 3.48622L9.62304 3.48566C9.83125 3.48566 10 3.32124 10 3.11863V0.370775C10 0.168347 9.83144 0.00411972 9.62343 0.0037452Z" />
    </g>
  </symbol>
  <symbol id="twitter" viewBox="0 0 18 16">
    <g>
      <path fill-rule="evenodd" clip-rule="evenodd" d="M17.979 2.36287C17.9532 2.33216 17.9106 2.32174 17.8743 2.33849C17.3361 2.57948 16.77 2.75273 16.1869 2.85508C16.8059 2.38501 17.2672 1.73406 17.5037 0.987638C17.5151 0.951909 17.5033 0.912829 17.4744 0.889567C17.4453 0.866306 17.4049 0.863328 17.373 0.882496C16.6758 1.2999 15.9206 1.59412 15.1276 1.75732C14.4248 1.02114 13.4435 0.600006 12.4278 0.600006C10.3623 0.600006 8.68211 2.29606 8.68211 4.38086C8.68211 4.63302 8.70626 4.88276 8.75419 5.12524C5.89336 4.94696 3.21836 3.56056 1.3995 1.30865C1.38088 1.28557 1.35268 1.27273 1.32318 1.27571C1.29387 1.27794 1.26769 1.29469 1.25294 1.32019C0.921099 1.89484 0.745777 2.55231 0.745777 3.22113C0.745777 4.38031 1.2675 5.46411 2.15591 6.17927C1.69853 6.12381 1.25183 5.97847 0.849016 5.75274C0.821916 5.7373 0.788179 5.73748 0.761078 5.7533C0.733978 5.76893 0.716833 5.79796 0.716095 5.8296L0.715727 5.87798C0.715727 7.54277 1.8025 9.00454 3.3487 9.48987C2.94145 9.55612 2.51891 9.55165 2.10356 9.47163C2.07295 9.46586 2.04088 9.47647 2.01986 9.50029C1.99903 9.52411 1.99202 9.55742 2.00161 9.58757C2.46526 11.0484 3.75354 12.0728 5.25309 12.2005C4.00224 13.1256 2.5237 13.613 0.961473 13.613C0.673694 13.613 0.383886 13.5956 0.0999786 13.562C0.0594204 13.5573 0.0192308 13.5817 0.00521981 13.621C-0.00879122 13.6606 0.00614159 13.7049 0.0411692 13.7274C1.73171 14.8218 3.68643 15.4 5.69425 15.4C12.2619 15.4 16.1865 10.0148 16.1865 4.80869C16.1865 4.66373 16.1837 4.5195 16.178 4.37565C16.8865 3.85254 17.4947 3.2122 17.9851 2.47099C18.007 2.43786 18.0046 2.39376 17.979 2.36287Z" />
    </g>
  </symbol>
  <symbol id="youtube" viewBox="0 0 18 16">
    <g>
      <path fill-rule="evenodd" clip-rule="evenodd" d="M9 0.800003C6.102 0.800003 2.3406 1.52935 2.3406 1.52935L2.33113 1.54022C1.01123 1.75225 0 2.89148 0 4.27697V11.7217C0.00266071 13.0899 0.993669 14.2523 2.33789 14.4652L2.3406 14.4693C2.3406 14.4693 6.102 15.2 9 15.2C11.898 15.2 15.6594 14.4693 15.6594 14.4693C17.0065 14.2555 17.9986 13.0914 18 11.723V4.27697C17.998 2.90956 17.0068 1.74641 15.6621 1.53343C15.6594 1.52935 11.898 0.800003 9 0.800003ZM7.2 4.85L12.6 8L7.2 11.15V4.85Z" />
    </g>
  </symbol>
  <symbol id="instagram" viewBox="0 0 18 18">
    <g>
      <path fill-rule="evenodd" clip-rule="evenodd" d="M9.00002 0.5C11.3085 0.5 11.5979 0.509785 12.5045 0.551151C13.4093 0.592416 14.0272 0.736118 14.5678 0.946256C15.1268 1.16345 15.6008 1.45409 16.0734 1.92663C16.5459 2.3992 16.8366 2.87323 17.0538 3.43218C17.2639 3.97284 17.4076 4.59073 17.4488 5.49546C17.4902 6.40208 17.5 6.69154 17.5 9.00002C17.5 11.3085 17.4902 11.5979 17.4488 12.5045C17.4076 13.4093 17.2639 14.0272 17.0538 14.5678C16.8366 15.1268 16.5459 15.6008 16.0734 16.0734C15.6008 16.5459 15.1268 16.8366 14.5678 17.0538C14.0272 17.2639 13.4093 17.4076 12.5045 17.4488C11.5979 17.4902 11.3085 17.5 9.00002 17.5C6.69154 17.5 6.40208 17.4902 5.49546 17.4488C4.59073 17.4076 3.97284 17.2639 3.43218 17.0538C2.87323 16.8366 2.3992 16.5459 1.92663 16.0734C1.45409 15.6008 1.16345 15.1268 0.946256 14.5678C0.736118 14.0272 0.592416 13.4093 0.551151 12.5045C0.509785 11.5979 0.5 11.3085 0.5 9.00002C0.5 6.69154 0.509785 6.40208 0.551151 5.49546C0.592416 4.59073 0.736118 3.97284 0.946256 3.43218C1.16345 2.87323 1.45409 2.3992 1.92663 1.92663C2.3992 1.45409 2.87323 1.16345 3.43218 0.946256C3.97284 0.736118 4.59073 0.592416 5.49546 0.551151C6.40208 0.509785 6.69154 0.5 9.00002 0.5ZM8.99734 11.8298C10.5616 11.8298 11.8298 10.5616 11.8298 8.99734C11.8298 7.433 10.5616 6.16488 8.99734 6.16488C7.433 6.16488 6.16488 7.433 6.16488 8.99734C6.16488 10.5616 7.433 11.8298 8.99734 11.8298ZM8.99734 4.63383C11.4072 4.63383 13.3608 6.58742 13.3608 8.99734C13.3608 11.4072 11.4072 13.3608 8.99734 13.3608C6.58742 13.3608 4.63383 11.4072 4.63383 8.99734C4.63383 6.58742 6.58742 4.63383 8.99734 4.63383ZM14.8556 4.37224C14.8556 4.94601 14.3904 5.41111 13.8166 5.41111C13.2429 5.41111 12.7778 4.94601 12.7778 4.37224C12.7778 3.79847 13.2429 3.33333 13.8166 3.33333C14.3904 3.33333 14.8556 3.79847 14.8556 4.37224Z" />
    </g>
  </symbol>
  <symbol id="post-bookmark" viewBox="0 0 22 28">
    <g>
      <path fill-rule="evenodd" clip-rule="evenodd" d="M3.5 0.5H18.5C20.1569 0.5 21.5 1.84315 21.5 3.5V27.5L11.1424 20L0.5 27.5V3.5C0.5 1.84315 1.84315 0.5 3.5 0.5Z" />
    </g>
  </symbol>
  <symbol id="home" viewBox="0 0 18 17">
    <g>
      <path fill-rule="evenodd" clip-rule="evenodd" d="M2 17H7V11H11V17H16V10H18L9 0L0 10H2V17Z" fill="white"/>
    </g>
  </symbol>
  <symbol id="arrow-prev" viewBox="0 0 15 7">
    <g>
      <path fill-rule="evenodd" clip-rule="evenodd" d="M15 3V4H4V7L0 3.5L4 0V3H15Z" fill="white"/>
    </g>
  </symbol>
  <symbol id="arrow-next" viewBox="0 0 15 7">
    <g>
      <path fill-rule="evenodd" clip-rule="evenodd" d="M0 3V4H11V7L15 3.5L11 0V3H0Z" fill="white"/>
    </g>
  </symbol>
  <symbol id="clock" viewBox="0 0 15 15">
    <g>
      <path fill-rule="evenodd" clip-rule="evenodd" d="M7.5 14.25C3.77208 14.25 0.75 11.2279 0.75 7.5C0.75 3.77208 3.77208 0.75 7.5 0.75C11.2279 0.75 14.25 3.77208 14.25 7.5C14.25 11.2279 11.2279 14.25 7.5 14.25ZM8.25 7.5V4.5C8.25 4.08579 7.91421 3.75 7.5 3.75C7.08579 3.75 6.75 4.08579 6.75 4.5V8.25C6.75 8.66421 7.08579 9 7.5 9H9.75C10.1642 9 10.5 8.66421 10.5 8.25C10.5 7.83579 10.1642 7.5 9.75 7.5H8.25Z" fill="white"/>
    </g>
  </symbol>
  <symbol id="share" viewBox="0 0 18 12">
    <g>
      <path fill-rule="evenodd" clip-rule="evenodd" d="M17.7816 5.13237L11.665 0.202036C11.0971 -0.25578 10.125 0.131603 10.125 0.695069V2.8785C6.93568 2.98415 4.54369 3.82935 2.75243 5.27323C0 7.49188 0 10 0 11.2C2.75243 7.84 10.125 7.84 10.125 7.84V10.5205C10.125 11.084 11.1408 11.4361 11.665 11.0135L17.7816 6.08322C17.9563 5.94235 18 5.77608 18 5.6C18 5.42392 17.9563 5.27323 17.7816 5.13237Z" fill="white"/>
    </g>
  </symbol>
  <symbol id="" viewBox="0 0 18 18">
    <g>
      
    </g>
  </symbol>
  <symbol id="" viewBox="0 0 18 18">
    <g>
      
    </g>
  </symbol>
  <symbol id="" viewBox="0 0 18 18">
    <g>
      
    </g>
  </symbol>
  <symbol id="" viewBox="0 0 18 18">
    <g>
      
    </g>
  </symbol>
</svg>
