<svg width="184" height="40" fill="none" xmlns="http://www.w3.org/2000/svg"><path d="M11.831 6.04v3.45l-3.06.588V24.98c0 1.883.503 3.294 1.51 4.236 1.02.928 2.413 1.392 4.18 1.392 1.791 0 3.197-.464 4.218-1.392 1.02-.928 1.53-2.34 1.53-4.236V10.078l-3.041-.588V6.04h11.83v3.45l-3.06.588V24.98c0 3.203-1.06 5.674-3.178 7.412C20.654 34.131 17.887 35 14.46 35c-3.414 0-6.174-.87-8.28-2.608-2.092-1.738-3.139-4.209-3.139-7.412V10.078L0 9.49V6.04h11.831zM30.53 31.157l2.746-.588V17.412l-3.041-.588v-3.451h8.378l.255 3.039c.706-1.085 1.576-1.928 2.61-2.53 1.033-.601 2.19-.902 3.472-.902 2.145 0 3.82.674 5.023 2.02 1.203 1.346 1.805 3.457 1.805 6.333v9.236l2.747.588v3.431H43.577v-3.431l2.452-.588v-9.216c0-1.425-.287-2.431-.863-3.02-.575-.601-1.445-.902-2.61-.902-.758 0-1.438.157-2.04.471-.602.3-1.105.732-1.51 1.294V30.57l2.315.588v3.431H30.529v-3.431zM56.173 31.157l2.767-.588V17.412l-3.061-.588v-3.451h8.79v17.196l2.747.588v3.431H56.173v-3.431zM64.67 8.294h-5.73V4h5.73v4.294zM78.305 16.823l-2.001.373 2.805 9.49.373 2h.118l.412-2 2.766-9.47-2.04-.393v-3.45h9.633v3.45l-1.844.295-6.259 17.47h-5.474l-6.278-17.47-1.845-.294v-3.451h9.634v3.45zM102.105 35c-3.061 0-5.507-.98-7.339-2.941-1.83-1.961-2.746-4.451-2.746-7.47v-.785c0-3.15.863-5.745 2.59-7.784 1.74-2.04 4.067-3.053 6.984-3.04 2.865 0 5.089.863 6.671 2.589 1.583 1.725 2.374 4.059 2.374 7v3.117H97.965l-.04.118c.105 1.399.57 2.549 1.393 3.45.838.903 1.969 1.354 3.395 1.354 1.269 0 2.321-.124 3.159-.373.837-.261 1.752-.666 2.746-1.215l1.55 3.529c-.876.693-2.014 1.275-3.413 1.745-1.387.47-2.937.706-4.65.706zm-.511-17.608c-1.059 0-1.896.405-2.511 1.216-.615.81-.994 1.876-1.138 3.196l.059.098h7.024v-.51c0-1.215-.288-2.183-.863-2.902-.563-.732-1.42-1.098-2.571-1.098zM113.798 31.157l2.747-.588V17.412l-3.041-.588v-3.451h8.378l.255 3.098c.497-1.098 1.138-1.955 1.923-2.569.785-.614 1.694-.922 2.727-.922.301 0 .615.027.942.079.34.039.621.091.843.157l-.608 5.215-2.354-.058c-.837 0-1.531.163-2.08.49-.549.326-.968.79-1.256 1.392v10.314l2.747.588v3.431h-11.223v-3.431zM147.604 20.667h-3.845l-.609-2.647c-.392-.314-.889-.576-1.491-.785a5.821 5.821 0 00-1.962-.313c-1.007 0-1.805.228-2.394.686-.588.444-.882 1.006-.882 1.686 0 .64.281 1.177.843 1.608.563.418 1.688.79 3.375 1.118 2.629.523 4.578 1.294 5.847 2.313 1.269 1.007 1.903 2.399 1.903 4.177 0 1.908-.824 3.47-2.472 4.686C144.282 34.4 142.124 35 139.442 35c-1.635 0-3.139-.235-4.513-.706a11.674 11.674 0 01-3.629-2.059l-.059-4.764h4.002l.785 2.764c.34.288.805.504 1.393.647.589.131 1.204.196 1.845.196 1.164 0 2.047-.209 2.648-.627.615-.418.922-.987.922-1.706 0-.627-.307-1.17-.922-1.627-.614-.458-1.746-.863-3.394-1.216-2.498-.51-4.388-1.262-5.67-2.255-1.269-1.006-1.904-2.372-1.904-4.098 0-1.778.733-3.307 2.198-4.588 1.465-1.294 3.551-1.941 6.259-1.941 1.648 0 3.205.222 4.67.666 1.478.445 2.635 1.013 3.472 1.706l.059 5.275zM164.478 34.588a10.574 10.574 0 01-.412-1.078 8.87 8.87 0 01-.275-1.137 7.847 7.847 0 01-2.492 1.902c-.968.483-2.08.725-3.335.725-2.08 0-3.735-.562-4.964-1.686-1.217-1.138-1.825-2.68-1.825-4.628 0-1.987.798-3.523 2.394-4.608 1.596-1.084 3.937-1.627 7.024-1.627h2.923v-2.079c0-1.02-.294-1.81-.883-2.372-.588-.562-1.458-.843-2.609-.843-.654 0-1.236.078-1.746.235-.51.144-.922.32-1.236.53l-.373 2.274h-4.317l.02-4.706c1.046-.706 2.243-1.3 3.59-1.784 1.361-.484 2.839-.726 4.435-.726 2.629 0 4.761.647 6.396 1.942 1.648 1.28 2.472 3.11 2.472 5.49v9.686c.013.288.039.562.079.824l1.746.235v3.431h-6.612zm-4.964-3.823c.863 0 1.648-.183 2.354-.55.707-.378 1.256-.849 1.648-1.411v-3.235h-2.923c-1.217 0-2.139.287-2.767.862-.627.563-.941 1.242-.941 2.04 0 .718.229 1.28.686 1.686.471.405 1.119.608 1.943.608zM172.444 7.451V4h8.79v26.569l2.766.588v3.431h-11.262v-3.431l2.766-.588V8.039l-3.06-.588z" fill="#262D33"/></svg>